<svg id="Layer_1" data-name="Layer 1" xmlns="http://www.w3.org/2000/svg" viewBox="0 0 300 297.76"><defs><style>.cls-1{fill:none;}.cls-2{fill:#d64541;}.cls-3{fill:#d8215f;}</style></defs><title>icons_movie</title><rect class="cls-1" x="188.92" y="250.93" width="46.37" height="5.75"/><rect class="cls-1" x="188.92" y="191.47" width="77.61" height="5.75"/><polyline class="cls-1" points="154.35 275.59 162.01 275.59 162.01 165.72 154.35 165.72"/><rect class="cls-1" x="188.92" y="220.7" width="77.61" height="5.75"/><path class="cls-2" d="M300,101.41H264.06L261,105.24h0l-29.93,37.49H189.65l33-41.33H181.22l-3.06,3.83h0l-29.93,37.49H106.81l33-41.33H98.38l-3.06,3.83h0L65.38,142.73H24l33-41.33H8.7V278.65a19.11,19.11,0,0,0,19.11,19.11H280.89A19.11,19.11,0,0,0,300,278.65V142.73H272.5L300,108.28v-6.87ZM158.18,275.59h-7.66V165.72h7.66V275.59Zm73.28-18.92H185.09v-5.75h46.37v5.75Zm31.25-30.22H185.09V220.7h77.61v5.75Zm0-29.23H185.09v-5.75h77.61v5.75Z"/><polygon class="cls-1" points="63.76 87.09 85.65 44.4 86.77 42.22 46.17 50.45 23.16 95.32 63.76 87.09"/><polygon class="cls-1" points="226.15 54.19 248.04 11.5 249.16 9.32 208.56 17.54 185.55 62.42 226.15 54.19"/><polygon class="cls-1" points="291.83 40.88 285.46 9.47 266.75 45.97 291.83 40.88"/><polygon class="cls-1" points="144.96 70.64 166.85 27.95 167.97 25.77 127.37 33.99 104.36 78.87 144.96 70.64"/><polygon class="cls-2" points="291.83 40.88 266.75 45.97 285.46 9.47 284 2.26 249.16 9.32 248.04 11.5 226.15 54.19 185.55 62.42 208.56 17.54 167.97 25.77 166.85 27.95 144.96 70.64 104.36 78.87 127.37 33.99 86.77 42.22 85.65 44.4 63.76 87.09 23.16 95.32 46.17 50.45 2.26 59.34 10.37 99.39 292.12 42.31 291.83 40.88"/><polygon class="cls-2" points="86.77 42.22 87.89 40.04 47.29 48.26 46.17 50.45 86.77 42.22"/><polygon class="cls-2" points="249.16 9.32 250.28 7.14 209.68 15.36 208.56 17.54 249.16 9.32"/><polygon class="cls-2" points="167.97 25.77 169.08 23.59 128.49 31.81 127.37 33.99 167.97 25.77"/><polygon class="cls-2" points="291.83 40.88 293.7 40.5 286.86 6.74 285.46 9.47 291.83 40.88"/><polygon class="cls-2" points="208.56 17.54 209.68 15.36 169.08 23.59 167.97 25.77 208.56 17.54"/><polygon class="cls-2" points="127.37 33.99 128.49 31.81 87.89 40.04 86.77 42.22 127.37 33.99"/><polygon class="cls-2" points="284 2.26 285.46 9.47 286.86 6.74 285.5 0 250.28 7.14 249.16 9.32 284 2.26"/><polygon class="cls-2" points="2.26 59.34 46.17 50.45 47.29 48.26 6.69 56.49 0 57.84 1.7 66.23 4.55 80.33 8.21 98.35 8.49 99.77 10.37 99.39 2.26 59.34"/><rect class="cls-2" x="291.95" y="40.68" width="1.92" height="1.45" transform="translate(-2.39 58.99) rotate(-11.45)"/><rect class="cls-2" x="7.7" y="70.83" width="287.47" height="1.92" transform="translate(-11.24 31.5) rotate(-11.45)"/><rect class="cls-2" x="292.29" y="42.1" width="1.92" height="1.92" transform="translate(-2.71 59.09) rotate(-11.45)"/><rect class="cls-2" x="8.67" y="99.56" width="1.92" height="1.92" transform="translate(-19.77 3.91) rotate(-11.45)"/><polygon class="cls-2" points="300 174.58 158.13 174.58 158.13 172.66 298.1 172.66 298.1 102.42 10.54 102.42 10.54 172.66 148.61 172.66 148.61 174.58 8.64 174.58 8.64 100.51 300 100.51 300 174.58"/><path class="cls-3" d="M148.61,173.62"/><line class="cls-3" x1="158.13" y1="177.25" x2="158.13" y2="173.62"/><path class="cls-3" d="M158.13,173.62"/><path class="cls-3" d="M148.61,173.62"/></svg>