<svg id="Layer_1" data-name="Layer 1" xmlns="http://www.w3.org/2000/svg" viewBox="0 0 300 300"><defs><style>.cls-1{fill:#e57e25;}</style></defs><title>icons_comic</title><path class="cls-1" d="M300,150a151.47,151.47,0,0,0-1.16-18.71H233.52a7.33,7.33,0,0,1-7.33-7.33v-4a7.33,7.33,0,0,1,7.33-7.33H189.15a7.33,7.33,0,0,1-7.33-7.33v-4a7.33,7.33,0,0,1,7.33-7.33h20.17A7.33,7.33,0,0,1,202,86.53v-4a7.33,7.33,0,0,1,7.33-7.33h20.17a7.33,7.33,0,0,1-7.33-7.33v-4a7.33,7.33,0,0,1,7.33-7.33H179.06a7.33,7.33,0,0,1-7.33-7.33v-4a7.33,7.33,0,0,1,7.33-7.33h20.17a7.33,7.33,0,0,1-7.33-7.33v-4A7.33,7.33,0,0,1,199.23,19h23.89A150,150,0,0,0,0,150c0,1,0,2,0,3H300C300,152,300,151,300,150ZM95.52,127.87a43.38,43.38,0,1,1,43.38-43.38A43.38,43.38,0,0,1,95.52,127.87Z"/><path class="cls-1" d="M181.81,273.66v-4a7.33,7.33,0,0,1,7.33-7.33h20.17a7.33,7.33,0,0,1-7.33-7.33v-4a7.33,7.33,0,0,1,7.33-7.33H179.06a7.33,7.33,0,0,1-7.33-7.33v-4a7.33,7.33,0,0,1,7.33-7.33H158.89a7.33,7.33,0,0,1-7.33-7.33v-4a7.33,7.33,0,0,1,7.33-7.33h80.67a7.33,7.33,0,0,1-7.33-7.33v-4a7.33,7.33,0,0,1,7.33-7.33h55.71a149.48,149.48,0,0,0,4-22.31H0.75A150,150,0,0,0,223.13,281h-34A7.33,7.33,0,0,1,181.81,273.66Z"/></svg>