<svg id="Layer_1" data-name="Layer 1" xmlns="http://www.w3.org/2000/svg" viewBox="0 0 239.97 303"><defs><style>.cls-1{fill:none;stroke:#f4d03e;stroke-miterlimit:10;stroke-width:3px;}.cls-2{fill:#f4d03e;}</style></defs><title>icons_book</title><path class="cls-1" d="M238.47,282.87a18.63,18.63,0,0,1-18.63,18.63H20.13A18.63,18.63,0,0,1,1.5,282.87V20.13A18.63,18.63,0,0,1,20.13,1.5H219.84a18.63,18.63,0,0,1,18.63,18.63"/><path class="cls-2" d="M238.47,19.14A17.64,17.64,0,0,0,220.83,1.5H210.55a5.93,5.93,0,0,1,.05.72V78.51c0,3.55-2.94,5.71-5.19,3.81L182.49,63a2.69,2.69,0,0,0-3.62,0L155.95,82.32c-2.25,1.9-5.19-.26-5.19-3.81V2.22a5.93,5.93,0,0,1,.05-0.72H19.14A17.64,17.64,0,0,0,1.5,19.14V283.86A17.64,17.64,0,0,0,19.14,301.5h201.7a17.64,17.64,0,0,0,17.64-17.64"/></svg>