<svg id="Layer_1" data-name="Layer 1" xmlns="http://www.w3.org/2000/svg" viewBox="0 0 300 264.13"><defs><style>.cls-1{fill:none;}.cls-2{fill:#c03a2b;}.cls-3{fill:#dc3f7b;}</style></defs><title>icons_tv</title><rect class="cls-1" x="16.62" y="87.71" width="210.89" height="161.19" rx="17.21" ry="17.21"/><circle class="cls-1" cx="263.75" cy="235.88" r="6.05"/><circle class="cls-1" cx="244.43" cy="235.88" r="6.05"/><circle class="cls-1" cx="283.08" cy="235.88" r="6.05"/><path class="cls-2" d="M280.82,72.48H19.18A19.18,19.18,0,0,0,0,91.67V244.94a19.18,19.18,0,0,0,19.18,19.18H280.82A19.18,19.18,0,0,0,300,244.94V91.67A19.18,19.18,0,0,0,280.82,72.48Zm-17.06,70.45a25.26,25.26,0,0,1,15.94,5.64H247.81A25.26,25.26,0,0,1,263.75,142.93Zm-21.1,11.28h42.19a25.27,25.27,0,0,1,2.83,5.64H239.83A25.28,25.28,0,0,1,242.66,154.21Zm-15.15,77.48A17.21,17.21,0,0,1,210.3,248.9H33.83a17.21,17.21,0,0,1-17.21-17.21V104.92A17.21,17.21,0,0,1,33.83,87.71H210.3a17.21,17.21,0,0,1,17.21,17.21V231.69Zm16.92,10.23a6.05,6.05,0,1,1,6.05-6.05A6.05,6.05,0,0,1,244.43,241.93Zm-1.77-59.52a25.28,25.28,0,0,1-2.83-5.64h47.85a25.27,25.27,0,0,1-2.83,5.64H242.66Zm37,5.64a25.35,25.35,0,0,1-31.88,0H279.7Zm-15.94,53.89a6.05,6.05,0,1,1,6.05-6.05A6.05,6.05,0,0,1,263.75,241.93Zm19.32,0a6.05,6.05,0,1,1,6.05-6.05A6.05,6.05,0,0,1,283.08,241.93Zm6.05-73.62v2.82H238.38v-5.64h50.74v2.82Z"/><path class="cls-3" d="M238.38,165.49v2.82a25.57,25.57,0,0,1,.16-2.82h-0.16Z"/><path class="cls-3" d="M289.13,171.12V168.3a25.63,25.63,0,0,1-.16,2.82h0.16Z"/><path class="cls-3" d="M289.13,168.3v-2.82H289A25.63,25.63,0,0,1,289.13,168.3Z"/><path class="cls-3" d="M238.38,171.12h0.16a25.57,25.57,0,0,1-.16-2.82v2.82Z"/><rect class="cls-2" x="97.98" y="67.96" width="40.35" height="9.83" rx="2.57" ry="2.57"/><polygon class="cls-2" points="154.93 6.75 153.03 5.78 118.06 69.58 123.74 72.48 154.93 6.75"/><polygon class="cls-2" points="89.69 4.14 87.74 4.99 114.91 72.48 120.75 69.93 89.69 4.14"/><circle class="cls-2" cx="88.71" cy="4.6" r="4.6"/><circle class="cls-2" cx="154.1" cy="6.12" r="4.6"/></svg>